# xmcd CD database file
#
# Track frame offsets:
#	150
#	26757
#	46580
#	74981
#	97281
#	113428
#	131527
#
# Disc length: 2124 seconds
#
# Revision: 0
# Processed by: cddbd v1.5.2PL0 Copyright (c) Steve Scherf et al.
# Submitted via: CDex 1.51
#
DISCID=60084a07
DTITLE=Destruction - Eternal Devastation
DYEAR=1986
DGENRE=Thrash Metal
TTITLE0=Curse The Gods
TTITLE1=Confound Games
TTITLE2=Life Without Sense
TTITLE3=United By Hatred
TTITLE4=Eternal Ban
TTITLE5=Upcoming Devastation
TTITLE6=Confused Mind
EXTD=YEAR: 1986
EXTT0=
EXTT1=
EXTT2=
EXTT3=
EXTT4=
EXTT5=
EXTT6=
PLAYORDER=
